# xmcd CD database file
#
# Track frame offsets:
#	150
#	20115
#	38932
#	58560
#
# Disc length: 1045 seconds
#
# Revision: 0
# Processed by: cddbd v1.5PL3 Copyright (c) Steve Scherf et al.
# Submitted via: CDex 1.51
#
DISCID=30041304
DTITLE=KAZAMI - Believe in
DYEAR=2001
DGENRE=JPop
TTITLE0=Believe in
TTITLE1=心もよう
TTITLE2=Believe in (TM Remix Version)
TTITLE3=Believe in (Backing Track)
EXTD=YEAR: 2001
EXTT0=
EXTT1=
EXTT2=
EXTT3=
PLAYORDER=
